HIERARCHY
ROOT root
{
	OFFSET 0.000000 0.000000 0.000000
	CHANNELS 6 Xposition Yposition Zposition Zrotation Yrotation Xrotation
	JOINT lhip
	{
		OFFSET 0.058581 -0.082280 -0.017664
		CHANNELS 3 Zrotation Yrotation Xrotation
		JOINT lknee
		{
			OFFSET 0.043451 -0.386469 0.008037
			CHANNELS 3 Zrotation Yrotation Xrotation
			JOINT lankle
			{
				OFFSET -0.014790 -0.426874 -0.037428
				CHANNELS 3 Zrotation Yrotation Xrotation
				JOINT ltoe
				{
					OFFSET 0.041054 -0.060286 0.122042
					CHANNELS 3 Zrotation Yrotation Xrotation
					End Site
					{
						OFFSET 0.000000 0.000000 0.000000
					}
				}
			}
		}
	}
	JOINT rhip
	{
		OFFSET -0.060310 -0.090513 -0.013543
		CHANNELS 3 Zrotation Yrotation Xrotation
		JOINT rknee
		{
			OFFSET -0.043257 -0.383688 -0.004843
			CHANNELS 3 Zrotation Yrotation Xrotation
			JOINT rankle
			{
				OFFSET 0.019056 -0.420046 -0.034562
				CHANNELS 3 Zrotation Yrotation Xrotation
				JOINT rtoe
				{
					OFFSET -0.034840 -0.062106 0.130323
					CHANNELS 3 Zrotation Yrotation Xrotation
					End Site
					{
						OFFSET 0.000000 0.000000 0.000000
					}
				}
			}
		}
	}
	JOINT lowerback
	{
		OFFSET 0.004439 0.124404 -0.038385
		CHANNELS 3 Zrotation Yrotation Xrotation
		JOINT upperback
		{
			OFFSET 0.004488 0.137956 0.026820
			CHANNELS 3 Zrotation Yrotation Xrotation
			JOINT chest
			{
				OFFSET -0.002265 0.056032 0.002855
				CHANNELS 3 Zrotation Yrotation Xrotation
				JOINT lowerneck
				{
					OFFSET -0.013390 0.211636 -0.033468
					CHANNELS 3 Zrotation Yrotation Xrotation
					JOINT upperneck
					{
						OFFSET 0.010113 0.088937 0.050410
						CHANNELS 3 Zrotation Yrotation Xrotation
						End Site
						{
							OFFSET 0.000000 0.000000 0.000000
						}
					}
				}
				JOINT lclavicle
				{
					OFFSET 0.071702 0.114000 -0.018898
					CHANNELS 3 Zrotation Yrotation Xrotation
					JOINT lshoulder
					{
						OFFSET 0.122921 0.045205 -0.019046
						CHANNELS 3 Zrotation Yrotation Xrotation
						JOINT lelbow
						{
							OFFSET 0.255332 -0.015649 -0.022946
							CHANNELS 3 Zrotation Yrotation Xrotation
							JOINT lwrist
							{
								OFFSET 0.265709 0.012698 -0.007375
								CHANNELS 3 Zrotation Yrotation Xrotation
								End Site
								{
									OFFSET 0.000000 0.000000 0.000000
								}
							}
						}
					}
				}
				JOINT rclavicle
				{
					OFFSET -0.082954 0.112472 -0.023707
					CHANNELS 3 Zrotation Yrotation Xrotation
					JOINT rshoulder
					{
						OFFSET -0.113228 0.046853 -0.008472
						CHANNELS 3 Zrotation Yrotation Xrotation
						JOINT relbow
						{
							OFFSET -0.260127 -0.014369 -0.031269
							CHANNELS 3 Zrotation Yrotation Xrotation
							JOINT rwrist
							{
								OFFSET -0.269108 0.006794 -0.006027
								CHANNELS 3 Zrotation Yrotation Xrotation
								End Site
								{
									OFFSET 0.000000 0.000000 0.000000
								}
							}
						}
					}
				}
			}
		}
	}
}
MOTION
Frames: 5
Frame Time: 0.033333
2.344251 0.700114 0.991162 -80.979349 0.021791 86.402888 -0.916808 -2.648566 -3.044453 -2.809790 -10.054625 8.724048 3.662457 9.931980 -9.807986 0.000000 -0.000000 0.000000 -2.551547 -4.719844 -4.743552 -0.404489 -2.522281 15.957493 1.554904 -11.906650 -12.948000 0.000000 -0.000000 0.000000 -0.631266 3.768835 7.171744 -1.805799 -1.650973 2.411602 -2.406826 0.679439 -1.010024 2.633986 8.255955 2.966485 4.174006 13.055770 8.733572 -26.451924 -4.725960 -1.340554 -50.959187 -6.784139 19.738871 -1.599094 -21.940791 13.559690 -4.582002 -8.748489 2.091693 20.569185 5.791918 4.263032 61.301582 -0.230047 20.309874 4.865394 32.562490 6.030191 6.007228 7.781693 -15.747994 
2.345749 0.700750 0.990623 -81.731228 -0.014201 86.731405 -0.931205 -2.630874 -3.393688 -2.760237 -9.731202 8.658134 3.481944 10.224155 -9.489514 0.000000 -0.000000 0.000000 -2.417255 -4.283963 -5.432963 -0.752180 -2.754041 16.125624 1.373390 -11.585482 -12.576473 0.000000 -0.000000 0.000000 -0.659383 3.608649 7.144626 -1.975006 -1.306775 2.320306 -2.377327 0.796763 -1.039936 2.615947 8.362243 3.009151 4.105820 12.741338 8.693779 -26.238764 -4.448161 -1.356843 -51.364360 -6.635067 19.891295 -1.482729 -22.030257 12.895332 -4.909294 -8.468396 1.849973 20.554419 6.000213 4.239284 61.356793 -0.136076 20.491663 4.655956 32.540485 5.743372 6.087175 7.466105 -15.890582 
2.346277 0.701459 0.989619 -82.199438 -0.099631 86.869797 -0.907192 -2.620025 -3.546169 -2.805792 -9.412916 8.468079 3.213893 9.969510 -9.322573 0.000000 -0.000000 0.000000 -2.489715 -4.025172 -5.767132 -0.796520 -2.814795 16.264428 1.483888 -11.346869 -12.413277 0.000000 -0.000000 0.000000 -0.750696 3.487186 7.267725 -2.059459 -1.126660 1.906922 -2.333723 0.882620 -0.891121 2.640187 8.112897 3.072693 4.055494 12.406105 9.114070 -26.145821 -4.252489 -1.173981 -51.647499 -6.528019 19.799945 -1.569222 -22.088644 12.844808 -5.086234 -8.314259 1.431253 20.489004 5.936704 4.351263 61.558219 -0.066129 20.498435 4.431367 32.663991 5.706939 5.523125 7.363492 -15.846786 
2.345789 0.701601 0.989400 -82.674961 -0.097278 86.846997 -0.914449 -2.402139 -3.369874 -2.831224 -9.099898 8.716644 3.536555 10.919091 -9.529362 0.000000 -0.000000 0.000000 -2.509833 -3.946225 -5.695523 -0.757955 -2.594147 16.090039 1.619515 -11.173546 -12.120556 0.000000 -0.000000 0.000000 -0.758894 3.437258 7.175269 -2.066729 -1.134845 2.030500 -2.433777 0.986839 -0.983576 2.610064 7.750193 3.109648 4.051355 12.346428 9.557532 -26.226134 -3.835759 -1.085312 -51.676609 -6.258169 20.037749 -1.626105 -22.059990 13.374676 -4.849439 -8.588757 1.838677 20.635366 5.778944 4.459384 61.505906 0.029992 20.622091 4.712242 32.686711 5.839694 5.078981 7.452989 -15.872942 
2.346081 0.701436 0.989228 -83.006924 -0.169351 86.833819 -1.031004 -2.384698 -3.262864 -2.798139 -9.151717 8.534691 3.423302 10.968531 -9.496498 0.000000 -0.000000 0.000000 -2.584841 -3.814649 -5.830863 -0.746044 -2.371065 16.236546 1.685256 -11.201719 -12.279474 0.000000 -0.000000 0.000000 -0.789666 3.367359 7.257602 -2.090162 -1.021206 1.957517 -2.505382 1.029169 -0.899375 2.590831 7.434185 2.949663 3.932590 12.294778 9.956582 -26.313562 -3.614919 -1.173427 -51.705942 -6.145241 20.301338 -1.623797 -21.904415 13.781547 -4.233073 -8.546060 2.025777 20.673442 5.684443 4.261882 61.421879 0.059339 20.873474 5.043580 32.608136 6.089546 4.813797 7.385780 -15.894440 
